<svg width="34" height="34" viewBox="0 0 34 34" fill="none" xmlns="http://www.w3.org/2000/svg">
<g clip-path="url(#clip0_5_9981)">
<path d="M28.764 8.20393C28.7836 8.31151 28.8202 8.41925 28.8202 8.52683C28.8229 13.0004 28.8206 17.474 28.8281 21.9474C28.8285 22.1893 28.7367 22.3048 28.5419 22.4134C26.7426 23.4167 24.948 24.4291 23.1524 25.4394C23.0547 25.4944 22.9591 25.5537 22.8625 25.6109C22.837 25.4684 22.7895 25.326 22.7892 25.1834C22.7843 23.141 22.7862 21.0985 22.785 19.0561C22.785 18.9245 22.7736 18.7928 22.7663 18.6356C22.676 18.6703 22.6286 18.682 22.5871 18.7054C20.664 19.7872 18.7414 20.8702 16.8188 21.953C16.7949 21.946 16.7708 21.9388 16.7468 21.9317C16.7474 19.7961 16.7464 17.6607 16.752 15.5253C16.7524 15.3251 16.7961 15.1249 16.8197 14.9248C17.4739 14.5603 18.1291 14.1975 18.7821 13.8309C21.4815 12.3155 24.1806 10.7999 26.8787 9.28212C27.5099 8.92712 28.1359 8.56354 28.764 8.20393Z" fill="#1F009D"/>
<path d="M16.7474 21.9317C16.7713 21.9388 16.7954 21.9458 16.8194 21.953C16.7937 22.1012 16.7507 22.2489 16.7461 22.3976C16.7353 22.7521 16.7424 23.1073 16.7424 23.4623C16.7424 25.1354 16.7437 26.8086 16.7404 28.4817C16.7401 28.6518 16.7895 28.8464 16.5951 28.9585C14.7127 27.8985 12.8311 26.8374 10.948 25.7789C9.32606 24.8674 7.70145 23.961 6.08027 23.0479C5.62402 22.7909 5.17586 22.5185 4.72412 22.2533C4.7263 22.0501 4.73018 21.8468 4.73034 21.6436C4.73049 17.3877 4.73049 13.132 4.73049 8.87611C4.73049 8.76169 4.72365 8.6468 4.73391 8.53334C4.74122 8.45277 4.772 8.37459 4.80247 8.25557C5.01948 8.37745 5.20182 8.48042 5.38447 8.58244C6.27831 9.08142 7.17323 9.57816 8.06567 10.0794C8.94723 10.5744 9.82661 11.0738 10.7069 11.5714C10.7046 13.8189 10.7013 16.0665 10.7037 18.3143C10.7038 18.4209 10.7551 18.5276 10.7825 18.6342C12.6679 19.6957 14.5532 20.7578 16.4401 21.8168C16.5346 21.8697 16.6446 21.894 16.7474 21.9317Z" fill="#6DCAFF"/>
<path d="M10.7825 18.634C10.755 18.5274 10.7038 18.4208 10.7037 18.3141C10.7013 16.0665 10.7048 13.8189 10.7069 11.5712C12.0079 10.8528 13.3104 10.137 14.6095 9.41512C15.2745 9.0455 15.9338 8.66492 16.5955 8.28942C16.7301 8.22617 16.8688 8.17039 16.9989 8.09873C18.8031 7.10555 20.6082 6.11428 22.4067 5.11077C22.6473 4.9765 22.8333 4.95647 23.0876 5.09615C24.8599 6.06915 26.6426 7.02228 28.4209 7.98399C28.5398 8.04835 28.6499 8.13019 28.764 8.20392C28.1358 8.56353 27.5098 8.92712 26.879 9.28196C24.181 10.7997 21.4818 12.3154 18.7824 13.8307C18.1293 14.1973 17.4741 14.5601 16.82 14.9246C16.6796 14.8774 16.5287 14.8504 16.4009 14.7799C15.5271 14.2965 14.658 13.8039 13.7873 13.3144C12.9275 12.831 12.0684 12.3465 11.207 11.866C11.0931 11.8024 10.9681 11.7597 10.8423 11.7045C10.7486 12.0786 10.7175 16.5288 10.7825 18.634Z" fill="#5429FF"/>
<path d="M16.595 28.9585C16.7893 28.8464 16.74 28.6518 16.7403 28.4817C16.7436 26.8086 16.7423 25.1354 16.7423 23.4623C16.7423 23.1075 16.7352 22.7523 16.7461 22.3976C16.7507 22.2487 16.7938 22.1011 16.8193 21.953C18.7419 20.8702 20.6645 19.7872 22.5876 18.7054C22.6289 18.6822 22.6765 18.6703 22.7668 18.6356C22.7741 18.7928 22.7853 18.9244 22.7855 19.0561C22.7865 21.0985 22.7847 23.141 22.7896 25.1834C22.79 25.326 22.8374 25.4684 22.863 25.6109C21.7135 26.2548 20.5639 26.8982 19.4147 27.5426C18.6012 27.9987 17.7888 28.4568 16.9749 28.9121C16.8566 28.9782 16.7349 29.0579 16.595 28.9585Z" fill="#B9E5FF"/>
<path d="M16.942 8.28942C16.28 8.66508 15.6209 9.04551 14.9559 9.41513C13.6568 10.137 12.3545 10.8529 11.0534 11.5712C10.173 11.0737 9.29382 10.5742 8.41211 10.0792C7.51951 9.57801 6.62459 9.08126 5.73091 8.58229C5.54825 8.48027 5.36591 8.37746 5.1489 8.25542C5.11844 8.37444 5.08766 8.45262 5.08035 8.53319C5.07009 8.64681 5.07693 8.76186 5.07693 8.87611C5.07693 13.132 5.07693 17.3877 5.07662 21.6436C5.07662 21.8468 5.07258 22.0501 5.0704 22.2533C5.04755 22.1049 5.0048 21.9563 5.00465 21.8079C5.00123 17.4117 5.00465 13.0155 4.9961 8.61948C4.99547 8.29673 5.10305 8.11971 5.38441 7.97018C7.13726 7.03897 8.88343 6.09411 10.6242 5.13954C10.9187 4.97793 11.1415 4.98048 11.4434 5.15416C13.0781 6.09458 14.7304 7.00322 16.3747 7.92648C16.57 8.03612 16.7532 8.16802 16.942 8.28942Z" fill="#99DAFF"/>
<path d="M10.7824 18.634C10.7175 16.5288 10.7486 12.0784 10.8421 11.7044C10.968 11.7595 11.093 11.8022 11.2068 11.8658C12.0682 12.3464 12.9273 12.8309 13.7871 13.3143C14.6578 13.8037 15.5269 14.2963 16.4009 14.7797C16.5286 14.8504 16.6797 14.8773 16.82 14.9245C16.7963 15.1247 16.7528 15.3248 16.7522 15.525C16.7466 17.6604 16.7477 19.796 16.747 21.9314C16.6443 21.8937 16.5344 21.8694 16.4399 21.8163C14.5532 20.7578 12.668 19.6955 10.7824 18.634Z" fill="#2900CE"/>
</g>
<defs>
<clipPath id="clip0_5_9981">
<rect width="24.1785" height="24.005" fill="white" transform="translate(4.64966 5.00034)"/>
</clipPath>
</defs>
</svg>
