<svg width="155" height="28" viewBox="0 0 155 28" fill="none" xmlns="http://www.w3.org/2000/svg">
<path d="M10.2972 18.0861L10.7907 21.576C9.57141 21.9444 8.4199 22.1286 7.33612 22.1286C5.72981 22.1286 4.56862 21.7796 3.85255 21.0816C3.15584 20.3836 2.80748 19.2688 2.80748 17.7371V9.88482H0.165771V6.62757H2.80748V2.20701H7.16194V6.62757H10.5584V9.88482H7.16194V16.9519C7.16194 17.456 7.27806 17.8147 7.5103 18.028C7.74254 18.2218 8.10057 18.3188 8.5844 18.3188C8.95211 18.3188 9.52303 18.2412 10.2972 18.0861Z" fill="#010202"/>
<path d="M19.8316 6.36582C20.4316 6.36582 21.2541 6.54032 22.2991 6.88931L21.4863 10.7282C20.5767 10.5149 19.9187 10.4083 19.5123 10.4083C18.5446 10.4083 17.7802 10.7864 17.2189 11.5425C16.6577 12.2793 16.3771 13.2972 16.3771 14.5962V21.7505H12.0226V6.62757H16.0577V8.77968C16.8706 7.17044 18.1285 6.36582 19.8316 6.36582Z" fill="#010202"/>
<path d="M32.3473 6.62757H36.7018V21.7505H32.7247V20.151C31.8151 21.547 30.3539 22.2449 28.3412 22.2449C26.5607 22.2449 25.2253 21.8184 24.3351 20.9653C23.4642 20.1122 23.0287 18.8907 23.0287 17.3009V6.62757H27.3832V16.1376C27.3832 17.6693 28.1283 18.4351 29.6185 18.4351C31.4377 18.4351 32.3473 17.4754 32.3473 15.5559V6.62757Z" fill="#010202"/>
<path d="M46.3176 18.5514C47.1111 18.5514 47.8175 18.4157 48.4368 18.1443C49.0561 17.8535 49.7915 17.3494 50.6431 16.632L53.0235 19.3658C51.0301 21.2852 48.7561 22.2449 46.2015 22.2449C43.7243 22.2449 41.7503 21.5179 40.2794 20.0637C38.828 18.6096 38.1022 16.6708 38.1022 14.2472C38.1022 11.8624 38.7989 9.9139 40.1924 8.40161C41.5858 6.86992 43.463 6.10408 45.8241 6.10408C48.1272 6.10408 49.898 6.77298 51.1366 8.11078C52.3945 9.44858 53.0235 11.3293 53.0235 13.7528C53.0235 14.2957 53.0042 14.858 52.9655 15.4396H42.3115C42.776 17.5142 44.1114 18.5514 46.3176 18.5514ZM45.7661 9.50675C44.0049 9.50675 42.8825 10.4665 42.3986 12.3859H48.8723C48.6594 10.4665 47.624 9.50675 45.7661 9.50675Z" fill="#010202"/>
<path d="M61.6862 4.09738C61.1249 4.09738 60.7282 4.2234 60.4959 4.47545C60.2637 4.70812 60.1476 5.12497 60.1476 5.72601V6.62757H63.3118V9.88482H60.1476V21.7505H55.7931V9.88482H53.2675V6.62757H55.7931V5.55151C55.7931 2.2167 57.4769 0.549301 60.8443 0.549301C61.8894 0.549301 62.9925 0.723797 64.1537 1.07279L63.3989 4.30096C62.8377 4.16524 62.2668 4.09738 61.6862 4.09738Z" fill="#010202"/>
<path d="M71.1338 6.10408C73.4561 6.10408 75.3624 6.86023 76.8526 8.37253C78.3428 9.86543 79.0879 11.7946 79.0879 14.16C79.0879 16.5447 78.3428 18.4933 76.8526 20.0056C75.3624 21.4985 73.4561 22.2449 71.1338 22.2449C68.792 22.2449 66.8761 21.4985 65.3859 20.0056C63.8957 18.4933 63.1506 16.5447 63.1506 14.16C63.1506 11.7946 63.8957 9.86543 65.3859 8.37253C66.8761 6.86023 68.792 6.10408 71.1338 6.10408ZM71.1338 9.79757C70.0693 9.79757 69.2081 10.195 68.5501 10.99C67.8921 11.7849 67.5631 12.8416 67.5631 14.16C67.5631 15.4978 67.8921 16.5641 68.5501 17.3591C69.2081 18.154 70.0693 18.5514 71.1338 18.5514C72.1982 18.5514 73.0497 18.154 73.6884 17.3591C74.3464 16.5641 74.6754 15.4978 74.6754 14.16C74.6754 12.8416 74.3464 11.7849 73.6884 10.99C73.0304 10.195 72.1788 9.79757 71.1338 9.79757Z" fill="#010202"/>
<path d="M89.7298 6.62757H94.0843V21.7505H90.1072V20.151C89.1976 21.547 87.7365 22.2449 85.7237 22.2449C83.9432 22.2449 82.6079 21.8184 81.7176 20.9653C80.8467 20.1122 80.4113 18.8907 80.4113 17.3009V6.62757H84.7657V16.1376C84.7657 17.6693 85.5108 18.4351 87.001 18.4351C88.8202 18.4351 89.7298 17.4754 89.7298 15.5559V6.62757Z" fill="#010202"/>
<path d="M104.745 6.10408C106.429 6.10408 107.745 6.5791 108.693 7.52913C109.661 8.47916 110.145 9.76849 110.145 11.3971V21.7505H105.79V12.6186C105.79 11.7461 105.568 11.0772 105.123 10.6119C104.697 10.1272 104.078 9.88482 103.265 9.88482C102.452 9.88482 101.804 10.1369 101.32 10.641C100.836 11.1451 100.594 11.8334 100.594 12.7058V21.7505H96.2395V6.62757H100.275V8.2562C101.3 6.82145 102.791 6.10408 104.745 6.10408Z" fill="#010202"/>
<path d="M122.629 1.10187H126.984V21.7505H122.948V19.9183C121.884 21.45 120.307 22.2159 118.217 22.2159C116.262 22.2159 114.656 21.4888 113.398 20.0347C112.159 18.5611 111.54 16.6223 111.54 14.2181C111.54 11.7946 112.159 9.85574 113.398 8.40161C114.656 6.92809 116.272 6.19133 118.246 6.19133C120.123 6.19133 121.584 6.79237 122.629 7.99445V1.10187ZM119.349 18.5224C120.355 18.5224 121.178 18.1249 121.816 17.33C122.455 16.535 122.774 15.4978 122.774 14.2181C122.774 12.9385 122.455 11.9109 121.816 11.1354C121.178 10.3405 120.365 9.94299 119.378 9.94299C118.352 9.94299 117.52 10.3308 116.881 11.1063C116.243 11.8818 115.923 12.9191 115.923 14.2181C115.923 15.5172 116.233 16.5641 116.852 17.3591C117.472 18.1346 118.304 18.5224 119.349 18.5224Z" fill="#010202"/>
<path d="M136.95 6.36582C137.55 6.36582 138.372 6.54032 139.417 6.88931L138.604 10.7282C137.695 10.5149 137.037 10.4083 136.63 10.4083C135.663 10.4083 134.898 10.7864 134.337 11.5425C133.776 12.2793 133.495 13.2972 133.495 14.5962V21.7505H129.141V6.62757H133.176V8.77968C133.989 7.17044 135.247 6.36582 136.95 6.36582Z" fill="#010202"/>
<path d="M150.378 6.62757H154.849L149.101 23.2628C148.597 24.7557 147.91 25.8221 147.04 26.4619C146.169 27.1211 145.007 27.4507 143.556 27.4507C142.337 27.4507 141.292 27.3053 140.421 27.0145L141.146 23.7863C141.727 23.9026 142.337 23.9608 142.975 23.9608C144.04 23.9608 144.785 23.5149 145.211 22.623L139.521 6.62757H144.108L145.269 10.1466C146.256 13.0742 146.933 15.2166 147.301 16.5738C147.727 15.0421 148.375 12.8997 149.246 10.1466L150.378 6.62757Z" fill="#010202"/>
</svg>
